<svg xmlns="http://www.w3.org/2000/svg" viewBox="0 0 760 470" width="760" height="470" font-size="12"><style>
text{font-family:-apple-system,'SF Pro Display','SF Pro Text','Inter','Helvetica Neue',Arial,sans-serif;fill:#19222C;font-variant-numeric:tabular-nums}
.title{font-size:17px;font-weight:600;letter-spacing:.1px}
.sub{font-size:11.5px;fill:#8492A0;letter-spacing:.2px}
.val{font-size:13.5px;font-weight:600}
.valsm{font-size:11.5px;font-weight:600}
.axis{font-size:10.5px;fill:#9AA6B2}
.cat{font-size:12.5px;fill:#3F4D5A;font-weight:500}
.lgd{font-size:12px;fill:#41505D}
.note{font-size:10.5px;fill:#6B7A88}
.tag{font-size:10px;fill:#8492A0;letter-spacing:.4px}
.pl{font-size:13px;font-weight:700;fill:#19222C}
</style><rect width="760" height="470" fill="#FFFFFF"/><text x="46.0" y="40.0" class="title" text-anchor="start">Error propagation — silently-wrong skills get retired</text><text x="46.0" y="58.0" class="sub" text-anchor="start">Deterministic harness · 5 seeds · 15% signal noise · planted ground truth</text><text x="52.0" y="80.0" class="pl" text-anchor="start">a</text><text x="68.0" y="80.0" class="lgd" text-anchor="start" font-weight="600">Bad skills retired</text><line x1="52.0" y1="400.0" x2="380.0" y2="400.0" stroke="#ECEFF3" stroke-width="1"/><text x="42.0" y="403.5" class="axis" text-anchor="end">0</text><line x1="52.0" y1="339.2" x2="380.0" y2="339.2" stroke="#ECEFF3" stroke-width="1"/><text x="42.0" y="342.7" class="axis" text-anchor="end">2</text><line x1="52.0" y1="278.4" x2="380.0" y2="278.4" stroke="#ECEFF3" stroke-width="1"/><text x="42.0" y="281.9" class="axis" text-anchor="end">4</text><line x1="52.0" y1="217.6" x2="380.0" y2="217.6" stroke="#ECEFF3" stroke-width="1"/><text x="42.0" y="221.1" class="axis" text-anchor="end">6</text><line x1="52.0" y1="156.8" x2="380.0" y2="156.8" stroke="#ECEFF3" stroke-width="1"/><text x="42.0" y="160.3" class="axis" text-anchor="end">8</text><line x1="52.0" y1="96.0" x2="380.0" y2="96.0" stroke="#ECEFF3" stroke-width="1"/><text x="42.0" y="99.5" class="axis" text-anchor="end">10</text><rect x="76.0" y="308.8" width="52.0" height="91.2" rx="5" fill="#0FA295"/><text x="102.0" y="298.8" class="valsm" text-anchor="middle" fill="#0A6E66">3/3</text><rect x="140.0" y="398.0" width="52.0" height="2.0" rx="2" fill="#E1A458"/><text x="166.0" y="392.0" class="valsm" text-anchor="middle" fill="#E1A458">0/3</text><text x="134.0" y="422.0" class="cat" text-anchor="middle">3 planted</text><text x="134.0" y="438.0" class="note" text-anchor="middle">bad skills</text><rect x="240.0" y="96.0" width="52.0" height="304.0" rx="5" fill="#0FA295"/><text x="266.0" y="86.0" class="valsm" text-anchor="middle" fill="#0A6E66">10/10</text><rect x="304.0" y="398.0" width="52.0" height="2.0" rx="2" fill="#E1A458"/><text x="330.0" y="392.0" class="valsm" text-anchor="middle" fill="#E1A458">0/10</text><text x="298.0" y="422.0" class="cat" text-anchor="middle">10 planted</text><text x="298.0" y="438.0" class="note" text-anchor="middle">bad skills</text><circle cx="60.0" cy="112.0" r="5" fill="#0FA295"/><text x="70.0" y="116.0" class="note" text-anchor="start">Echo</text><circle cx="60.0" cy="130.0" r="5" fill="#E1A458"/><text x="70.0" y="134.0" class="note" text-anchor="start">Baseline B (freq. decay)</text><text x="430.0" y="80.0" class="pl" text-anchor="start">b</text><text x="446.0" y="80.0" class="lgd" text-anchor="start" font-weight="600">Why: final confidence separates them</text><rect x="430.0" y="369.6" width="300.0" height="30.4" rx="0" fill="#FBEDE9" fill-opacity="0.8"/><line x1="430.0" y1="308.8" x2="730.0" y2="308.8" stroke="#9AA6B2" stroke-width="1.1" stroke-dasharray="4,4"/><text x="434.0" y="302.8" class="note" text-anchor="start" fill="#9AA6B2">c_min 0.30 → review</text><line x1="430.0" y1="369.6" x2="730.0" y2="369.6" stroke="#DD6B4B" stroke-width="1.1" stroke-dasharray="4,4"/><text x="434.0" y="363.6" class="note" text-anchor="start" fill="#DD6B4B">c_retire 0.10 → retired</text><text x="422.0" y="403.5" class="axis" text-anchor="end">0.00</text><text x="422.0" y="327.5" class="axis" text-anchor="end">0.25</text><text x="422.0" y="251.5" class="axis" text-anchor="end">0.50</text><text x="422.0" y="175.5" class="axis" text-anchor="end">0.75</text><text x="422.0" y="99.5" class="axis" text-anchor="end">1.00</text><circle cx="507.0" cy="137.3" r="3.4" fill="#46A56B" fill-opacity="0.7"/><circle cx="526.8" cy="119.6" r="3.4" fill="#46A56B" fill-opacity="0.7"/><circle cx="520.6" cy="96.0" r="3.4" fill="#46A56B" fill-opacity="0.7"/><circle cx="514.4" cy="119.2" r="3.4" fill="#46A56B" fill-opacity="0.7"/><circle cx="508.1" cy="122.6" r="3.4" fill="#46A56B" fill-opacity="0.7"/><circle cx="527.9" cy="158.6" r="3.4" fill="#46A56B" fill-opacity="0.7"/><circle cx="521.7" cy="174.3" r="3.4" fill="#46A56B" fill-opacity="0.7"/><circle cx="515.5" cy="189.1" r="3.4" fill="#46A56B" fill-opacity="0.7"/><circle cx="509.3" cy="128.8" r="3.4" fill="#46A56B" fill-opacity="0.7"/><circle cx="529.1" cy="166.8" r="3.4" fill="#46A56B" fill-opacity="0.7"/><line x1="494.0" y1="141.2" x2="546.0" y2="141.2" stroke="#46A56B" stroke-width="2.4"/><text x="552.0" y="144.7" class="valsm" text-anchor="start" fill="#46A56B">mean 0.85</text><text x="520.0" y="422.0" class="cat" text-anchor="middle">Good skills</text><circle cx="627.0" cy="369.4" r="3.4" fill="#DD6B4B" fill-opacity="0.7"/><circle cx="646.8" cy="344.0" r="3.4" fill="#DD6B4B" fill-opacity="0.7"/><circle cx="640.6" cy="355.1" r="3.4" fill="#DD6B4B" fill-opacity="0.7"/><circle cx="634.4" cy="363.9" r="3.4" fill="#DD6B4B" fill-opacity="0.7"/><circle cx="628.1" cy="364.0" r="3.4" fill="#DD6B4B" fill-opacity="0.7"/><circle cx="647.9" cy="364.9" r="3.4" fill="#DD6B4B" fill-opacity="0.7"/><circle cx="641.7" cy="360.2" r="3.4" fill="#DD6B4B" fill-opacity="0.7"/><circle cx="635.5" cy="359.3" r="3.4" fill="#DD6B4B" fill-opacity="0.7"/><circle cx="629.3" cy="360.2" r="3.4" fill="#DD6B4B" fill-opacity="0.7"/><circle cx="649.1" cy="355.2" r="3.4" fill="#DD6B4B" fill-opacity="0.7"/><line x1="614.0" y1="359.6" x2="666.0" y2="359.6" stroke="#DD6B4B" stroke-width="2.4"/><text x="672.0" y="363.1" class="valsm" text-anchor="start" fill="#DD6B4B">mean 0.13</text><text x="640.0" y="422.0" class="cat" text-anchor="middle">Bad skills</text></svg>