<svg xmlns="http://www.w3.org/2000/svg" viewBox="0 0 760 520" width="760" height="520" font-size="12"><style>
text{font-family:-apple-system,'SF Pro Display','SF Pro Text','Inter','Helvetica Neue',Arial,sans-serif;fill:#19222C;font-variant-numeric:tabular-nums}
.title{font-size:17px;font-weight:600;letter-spacing:.1px}
.sub{font-size:11.5px;fill:#8492A0;letter-spacing:.2px}
.val{font-size:13.5px;font-weight:600}
.valsm{font-size:11.5px;font-weight:600}
.axis{font-size:10.5px;fill:#9AA6B2}
.cat{font-size:12.5px;fill:#3F4D5A;font-weight:500}
.lgd{font-size:12px;fill:#41505D}
.note{font-size:10.5px;fill:#6B7A88}
.tag{font-size:10px;fill:#8492A0;letter-spacing:.4px}
.pl{font-size:13px;font-weight:700;fill:#19222C}
</style><rect width="760" height="520" fill="#FFFFFF"/><text x="46.0" y="40.0" class="title" text-anchor="start">Per-module micro-metrics</text><text x="46.0" y="58.0" class="sub" text-anchor="start">Deterministic · planted ground truth · invariant to run scale</text><text x="56.0" y="84.0" class="pl" text-anchor="start">a</text><text x="72.0" y="84.0" class="lgd" text-anchor="start" font-weight="600">M4 · confidence tracks usefulness</text><line x1="92.0" y1="230.0" x2="302.0" y2="110.0" stroke="#E3E8ED" stroke-width="1" stroke-dasharray="4,4"/><line x1="92.0" y1="230.0" x2="302.0" y2="230.0" stroke="#ECEFF3" stroke-width="1"/><text x="86.0" y="233.0" class="axis" text-anchor="end">0.20</text><line x1="92.0" y1="194.0" x2="302.0" y2="194.0" stroke="#ECEFF3" stroke-width="1"/><text x="86.0" y="197.0" class="axis" text-anchor="end">0.35</text><line x1="92.0" y1="158.0" x2="302.0" y2="158.0" stroke="#ECEFF3" stroke-width="1"/><text x="86.0" y="161.0" class="axis" text-anchor="end">0.50</text><line x1="92.0" y1="122.0" x2="302.0" y2="122.0" stroke="#ECEFF3" stroke-width="1"/><text x="86.0" y="125.0" class="axis" text-anchor="end">0.65</text><text x="127.0" y="244.0" class="axis" text-anchor="middle">0.5</text><text x="197.0" y="244.0" class="axis" text-anchor="middle">0.7</text><text x="267.0" y="244.0" class="axis" text-anchor="middle">0.9</text><circle cx="232.0" cy="158.0" r="5" fill="#0FA295" fill-opacity="0.85"/><circle cx="267.0" cy="146.0" r="5" fill="#0FA295" fill-opacity="0.85"/><circle cx="197.0" cy="158.0" r="5" fill="#0FA295" fill-opacity="0.85"/><circle cx="144.5" cy="206.6" r="5" fill="#0FA295" fill-opacity="0.85"/><circle cx="127.0" cy="158.0" r="5" fill="#0FA295" fill-opacity="0.85"/><text x="302.0" y="114.0" class="valsm" text-anchor="end" fill="#0A6E66">ρ = +0.67</text><text x="197.0" y="260.0" class="note" text-anchor="middle">true usefulness</text><text x="430.0" y="84.0" class="pl" text-anchor="start">b</text><text x="446.0" y="84.0" class="lgd" text-anchor="start" font-weight="600">M1 · ties the Hermes rule</text><line x1="462.0" y1="230.0" x2="676.0" y2="230.0" stroke="#ECEFF3" stroke-width="1"/><text x="456.0" y="233.0" class="axis" text-anchor="end">0.0</text><line x1="462.0" y1="170.0" x2="676.0" y2="170.0" stroke="#ECEFF3" stroke-width="1"/><text x="456.0" y="173.0" class="axis" text-anchor="end">0.5</text><line x1="462.0" y1="110.0" x2="676.0" y2="110.0" stroke="#ECEFF3" stroke-width="1"/><text x="456.0" y="113.0" class="axis" text-anchor="end">1.0</text><rect x="477.5" y="110.0" width="34.0" height="120.0" rx="3" fill="#0FA295"/><rect x="519.5" y="110.0" width="34.0" height="120.0" rx="3" fill="#A9B4BF"/><text x="494.5" y="104.0" class="tag" text-anchor="middle" fill="#0A6E66">1.00</text><text x="536.5" y="104.0" class="tag" text-anchor="middle">1.00</text><text x="515.5" y="244.0" class="note" text-anchor="middle">Precision</text><rect x="584.5" y="150.0" width="34.0" height="80.0" rx="3" fill="#0FA295"/><rect x="626.5" y="150.0" width="34.0" height="80.0" rx="3" fill="#A9B4BF"/><text x="601.5" y="144.0" class="tag" text-anchor="middle" fill="#0A6E66">0.67</text><text x="643.5" y="144.0" class="tag" text-anchor="middle">0.67</text><text x="622.5" y="244.0" class="note" text-anchor="middle">Recall</text><circle cx="503.0" cy="264.0" r="4" fill="#0FA295"/><text x="511.0" y="267.5" class="tag" text-anchor="start">Echo</text><circle cx="577.0" cy="264.0" r="4" fill="#A9B4BF"/><text x="585.0" y="267.5" class="tag" text-anchor="start">Hermes rule</text><text x="56.0" y="312.0" class="pl" text-anchor="start">c</text><text x="72.0" y="312.0" class="lgd" text-anchor="start" font-weight="600">M3 · drift detection (small n)</text><line x1="88.0" y1="448.0" x2="302.0" y2="448.0" stroke="#ECEFF3" stroke-width="1"/><text x="82.0" y="451.0" class="axis" text-anchor="end">0.0</text><line x1="88.0" y1="393.0" x2="302.0" y2="393.0" stroke="#ECEFF3" stroke-width="1"/><text x="82.0" y="396.0" class="axis" text-anchor="end">0.5</text><line x1="88.0" y1="338.0" x2="302.0" y2="338.0" stroke="#ECEFF3" stroke-width="1"/><text x="82.0" y="341.0" class="axis" text-anchor="end">1.0</text><rect x="101.7" y="338.0" width="44.0" height="110.0" rx="3" fill="#0FA295"/><text x="123.7" y="332.0" class="tag" text-anchor="middle" fill="#0A6E66">1.00</text><text x="123.7" y="462.0" class="note" text-anchor="middle">Prec.</text><rect x="173.0" y="338.0" width="44.0" height="110.0" rx="3" fill="#0FA295"/><text x="195.0" y="332.0" class="tag" text-anchor="middle" fill="#0A6E66">1.00</text><text x="195.0" y="462.0" class="note" text-anchor="middle">Recall</text><rect x="244.3" y="338.0" width="44.0" height="110.0" rx="3" fill="#0FA295"/><text x="266.3" y="332.0" class="tag" text-anchor="middle" fill="#0A6E66">1.00</text><text x="266.3" y="462.0" class="note" text-anchor="middle">F1</text><text x="88.0" y="478.0" class="tag" text-anchor="start">TP 1 · FP 0 · FN 0 · TN 20 · 9 warm-up excl.</text><text x="430.0" y="312.0" class="pl" text-anchor="start">d</text><text x="446.0" y="312.0" class="lgd" text-anchor="start" font-weight="600">M5 · weighting uplift null here</text><line x1="466.0" y1="448.0" x2="676.0" y2="448.0" stroke="#ECEFF3" stroke-width="1"/><text x="460.0" y="451.0" class="axis" text-anchor="end">0.00</text><line x1="466.0" y1="393.0" x2="676.0" y2="393.0" stroke="#ECEFF3" stroke-width="1"/><text x="460.0" y="396.0" class="axis" text-anchor="end">0.25</text><line x1="466.0" y1="338.0" x2="676.0" y2="338.0" stroke="#ECEFF3" stroke-width="1"/><text x="460.0" y="341.0" class="axis" text-anchor="end">0.50</text><rect x="486.5" y="365.5" width="64.0" height="82.5" rx="3" fill="#A9B4BF"/><text x="518.5" y="359.5" class="tag" text-anchor="middle">0.375</text><text x="518.5" y="462.0" class="note" text-anchor="middle">no weights</text><rect x="591.5" y="365.5" width="64.0" height="82.5" rx="3" fill="#0FA295"/><text x="623.5" y="359.5" class="tag" text-anchor="middle">0.375</text><text x="623.5" y="462.0" class="note" text-anchor="middle">+ conf. weights</text><text x="466.0" y="478.0" class="tag" text-anchor="start" font-style="italic">real M5 value: see PersonaMem / PrefEval</text></svg>