<svg xmlns="http://www.w3.org/2000/svg" viewBox="0 0 760 560" width="760" height="560" font-size="12"><style>
text{font-family:-apple-system,'SF Pro Display','SF Pro Text','Inter','Helvetica Neue',Arial,sans-serif;fill:#19222C;font-variant-numeric:tabular-nums}
.title{font-size:17px;font-weight:600;letter-spacing:.1px}
.sub{font-size:11.5px;fill:#8492A0;letter-spacing:.2px}
.val{font-size:13.5px;font-weight:600}
.valsm{font-size:11.5px;font-weight:600}
.axis{font-size:10.5px;fill:#9AA6B2}
.cat{font-size:12.5px;fill:#3F4D5A;font-weight:500}
.lgd{font-size:12px;fill:#41505D}
.note{font-size:10.5px;fill:#6B7A88}
.tag{font-size:10px;fill:#8492A0;letter-spacing:.4px}
.pl{font-size:13px;font-weight:700;fill:#19222C}
</style><rect width="760" height="560" fill="#FFFFFF"/><text x="46.0" y="40.0" class="title" text-anchor="start">System overhead — modest, on a cheap off-latency tier</text><text x="46.0" y="58.0" class="sub" text-anchor="start">Tokens per 10-turn run · Baseline A also revises (fair agent-token comparison)</text><text x="56.0" y="80.0" class="pl" text-anchor="start">a</text><text x="72.0" y="80.0" class="lgd" text-anchor="start" font-weight="600">Total token budget</text><line x1="56.0" y1="400.0" x2="400.0" y2="400.0" stroke="#ECEFF3" stroke-width="1"/><text x="48.0" y="403.5" class="axis" text-anchor="end">0k</text><line x1="56.0" y1="324.0" x2="400.0" y2="324.0" stroke="#ECEFF3" stroke-width="1"/><text x="48.0" y="327.5" class="axis" text-anchor="end">4k</text><line x1="56.0" y1="248.0" x2="400.0" y2="248.0" stroke="#ECEFF3" stroke-width="1"/><text x="48.0" y="251.5" class="axis" text-anchor="end">8k</text><line x1="56.0" y1="172.0" x2="400.0" y2="172.0" stroke="#ECEFF3" stroke-width="1"/><text x="48.0" y="175.5" class="axis" text-anchor="end">12k</text><line x1="56.0" y1="96.0" x2="400.0" y2="96.0" stroke="#ECEFF3" stroke-width="1"/><text x="48.0" y="99.5" class="axis" text-anchor="end">16k</text><rect x="78.3" y="310.7" width="70.0" height="89.3" rx="3" fill="#CCD3DA"/><rect x="78.3" y="308.7" width="70.0" height="2.0" rx="3" fill="#D9748B"/><text x="113.3" y="298.7" class="valsm" text-anchor="middle">4.8k</text><text x="113.3" y="422.0" class="cat" text-anchor="middle">Baseline A</text><rect x="193.0" y="125.7" width="70.0" height="274.3" rx="3" fill="#CCD3DA"/><text x="228.0" y="115.7" class="valsm" text-anchor="middle">14.4k</text><text x="228.0" y="422.0" class="cat" text-anchor="middle">Baseline B</text><rect x="307.7" y="306.0" width="70.0" height="94.0" rx="3" fill="#CCD3DA"/><rect x="307.7" y="267.8" width="70.0" height="38.2" rx="3" fill="#0FA295"/><rect x="307.7" y="256.6" width="70.0" height="11.2" rx="3" fill="#D9748B"/><text x="342.7" y="246.6" class="valsm" text-anchor="middle">7.5k</text><text x="342.7" y="422.0" class="cat" text-anchor="middle">Echo</text><text x="56.0" y="444.0" class="note" text-anchor="start" fill="#0A6E66">fair agent-token Δ (Echo vs A) = +5.3%</text><rect x="56.0" y="90.0" width="11.0" height="11.0" rx="2" fill="#CCD3DA"/><text x="72.0" y="99.0" class="note" text-anchor="start">agent</text><rect x="134.0" y="90.0" width="11.0" height="11.0" rx="2" fill="#0FA295"/><text x="150.0" y="99.0" class="note" text-anchor="start">Layer B</text><rect x="212.0" y="90.0" width="11.0" height="11.0" rx="2" fill="#D9748B"/><text x="228.0" y="99.0" class="note" text-anchor="start">Layer C</text><text x="440.0" y="80.0" class="pl" text-anchor="start">b</text><text x="456.0" y="80.0" class="lgd" text-anchor="start" font-weight="600">Steady-state per turn</text><line x1="440.0" y1="400.0" x2="590.0" y2="400.0" stroke="#ECEFF3" stroke-width="1"/><text x="434.0" y="403.5" class="axis" text-anchor="end">0</text><line x1="440.0" y1="330.9" x2="590.0" y2="330.9" stroke="#ECEFF3" stroke-width="1"/><text x="434.0" y="334.4" class="axis" text-anchor="end">250</text><line x1="440.0" y1="261.8" x2="590.0" y2="261.8" stroke="#ECEFF3" stroke-width="1"/><text x="434.0" y="265.3" class="axis" text-anchor="end">500</text><line x1="440.0" y1="192.7" x2="590.0" y2="192.7" stroke="#ECEFF3" stroke-width="1"/><text x="434.0" y="196.2" class="axis" text-anchor="end">750</text><line x1="440.0" y1="123.6" x2="590.0" y2="123.6" stroke="#ECEFF3" stroke-width="1"/><text x="434.0" y="127.1" class="axis" text-anchor="end">1000</text><rect x="470.0" y="178.2" width="64.0" height="221.8" rx="3" fill="#CCD3DA"/><rect x="470.0" y="122.6" width="64.0" height="55.6" rx="3" fill="#0FA295"/><text x="502.0" y="194.2" class="valsm" text-anchor="middle" fill="#5B6B7B">803</text><text x="502.0" y="136.6" class="valsm" text-anchor="middle" fill="#FFFFFF">+201</text><text x="546.0" y="126.6" class="pl" text-anchor="start" fill="#0A6E66" font-size="14">+25%</text><text x="502.0" y="422.0" class="cat" text-anchor="middle">per turn</text><rect x="470" y="444" width="250" height="84" rx="10" fill="#FCF1F4" stroke="#D9748B" stroke-opacity="0.5"/><text x="484.0" y="466.0" class="lgd" text-anchor="start" font-weight="600">Layer C (judge) is rare</text><text x="484.0" y="486.0" class="note" text-anchor="start">13 firings / 450 turns (≈1 per 35)</text><text x="484.0" y="502.0" class="note" text-anchor="start">36/45 runs never fired it</text><text x="484.0" y="518.0" class="note" text-anchor="start">planted-bad stress test; normal use ≈ 0</text></svg>