<svg xmlns="http://www.w3.org/2000/svg" viewBox="0 0 720 440" width="720" height="440" font-size="12"><style>
text{font-family:-apple-system,'SF Pro Display','SF Pro Text','Inter','Helvetica Neue',Arial,sans-serif;fill:#19222C;font-variant-numeric:tabular-nums}
.title{font-size:17px;font-weight:600;letter-spacing:.1px}
.sub{font-size:11.5px;fill:#8492A0;letter-spacing:.2px}
.val{font-size:13.5px;font-weight:600}
.valsm{font-size:11.5px;font-weight:600}
.axis{font-size:10.5px;fill:#9AA6B2}
.cat{font-size:12.5px;fill:#3F4D5A;font-weight:500}
.lgd{font-size:12px;fill:#41505D}
.note{font-size:10.5px;fill:#6B7A88}
.tag{font-size:10px;fill:#8492A0;letter-spacing:.4px}
.pl{font-size:13px;font-weight:700;fill:#19222C}
</style><rect width="720" height="440" fill="#FFFFFF"/><text x="56.0" y="40.0" class="title" text-anchor="start">Preference recall — PersonaMem (COLM 2025)</text><text x="56.0" y="58.0" class="sub" text-anchor="start">Multiple-choice probe accuracy · 3 seeds · n = 540 · whiskers ±1 SD</text><line x1="56.0" y1="376.0" x2="570.0" y2="376.0" stroke="#ECEFF3" stroke-width="1"/><text x="46.0" y="379.5" class="axis" text-anchor="end">0</text><line x1="56.0" y1="305.0" x2="570.0" y2="305.0" stroke="#ECEFF3" stroke-width="1"/><text x="46.0" y="308.5" class="axis" text-anchor="end">20</text><line x1="56.0" y1="234.0" x2="570.0" y2="234.0" stroke="#ECEFF3" stroke-width="1"/><text x="46.0" y="237.5" class="axis" text-anchor="end">40</text><line x1="56.0" y1="163.0" x2="570.0" y2="163.0" stroke="#ECEFF3" stroke-width="1"/><text x="46.0" y="166.5" class="axis" text-anchor="end">60</text><line x1="56.0" y1="92.0" x2="570.0" y2="92.0" stroke="#ECEFF3" stroke-width="1"/><text x="46.0" y="95.5" class="axis" text-anchor="end">80</text><text x="46.0" y="80.0" class="axis" text-anchor="end">%</text><rect x="95.7" y="209.7" width="92.0" height="166.3" rx="5" fill="#A9B4BF"/><line x1="141.7" y1="203.6" x2="141.7" y2="215.8" stroke="#93A1B0" stroke-width="1.4"/><line x1="136.7" y1="203.6" x2="146.7" y2="203.6" stroke="#93A1B0" stroke-width="1.4"/><line x1="136.7" y1="215.8" x2="146.7" y2="215.8" stroke="#93A1B0" stroke-width="1.4"/><text x="141.7" y="197.7" class="val" text-anchor="middle">46.8%</text><text x="141.7" y="398.0" class="cat" text-anchor="middle">No memory</text><text x="141.7" y="414.0" class="note" text-anchor="middle">cold</text><text x="141.7" y="364.0" class="tag" text-anchor="middle" fill="#52606D">0 chars</text><rect x="267.0" y="180.1" width="92.0" height="195.9" rx="5" fill="#7E9BD0"/><line x1="313.0" y1="169.6" x2="313.0" y2="190.6" stroke="#93A1B0" stroke-width="1.4"/><line x1="308.0" y1="169.6" x2="318.0" y2="169.6" stroke="#93A1B0" stroke-width="1.4"/><line x1="308.0" y1="190.6" x2="318.0" y2="190.6" stroke="#93A1B0" stroke-width="1.4"/><text x="313.0" y="168.1" class="val" text-anchor="middle">55.2%</text><text x="313.0" y="398.0" class="cat" text-anchor="middle">Full history</text><text x="313.0" y="414.0" class="note" text-anchor="middle">naive RAG</text><text x="313.0" y="364.0" class="tag" text-anchor="middle" fill="#FFFFFF">8,254 chars</text><rect x="438.3" y="146.6" width="92.0" height="229.4" rx="5" fill="#0FA295"/><line x1="484.3" y1="142.8" x2="484.3" y2="150.3" stroke="#93A1B0" stroke-width="1.4"/><line x1="479.3" y1="142.8" x2="489.3" y2="142.8" stroke="#93A1B0" stroke-width="1.4"/><line x1="479.3" y1="150.3" x2="489.3" y2="150.3" stroke="#93A1B0" stroke-width="1.4"/><text x="484.3" y="134.6" class="val" text-anchor="middle">64.6%</text><text x="484.3" y="398.0" class="cat" text-anchor="middle">Echo M5</text><text x="484.3" y="414.0" class="note" text-anchor="middle">retrieval</text><text x="484.3" y="364.0" class="tag" text-anchor="middle" fill="#FFFFFF">2,653 chars</text><text x="588.0" y="118.0" class="lgd" text-anchor="start">Echo wins on</text><text x="588.0" y="136.0" class="lgd" text-anchor="start">both axes:</text><text x="588.0" y="162.0" class="pl" text-anchor="start" fill="#0A6E66">+17.8 pts</text><text x="588.0" y="178.0" class="note" text-anchor="start">vs cold</text><text x="588.0" y="204.0" class="pl" text-anchor="start" fill="#0A6E66">⅓ the context</text><text x="588.0" y="220.0" class="note" text-anchor="start">vs full history</text></svg>