<svg xmlns="http://www.w3.org/2000/svg" viewBox="0 0 720 440" width="720" height="440" font-size="12"><style>
text{font-family:-apple-system,'SF Pro Display','SF Pro Text','Inter','Helvetica Neue',Arial,sans-serif;fill:#19222C;font-variant-numeric:tabular-nums}
.title{font-size:17px;font-weight:600;letter-spacing:.1px}
.sub{font-size:11.5px;fill:#8492A0;letter-spacing:.2px}
.val{font-size:13.5px;font-weight:600}
.valsm{font-size:11.5px;font-weight:600}
.axis{font-size:10.5px;fill:#9AA6B2}
.cat{font-size:12.5px;fill:#3F4D5A;font-weight:500}
.lgd{font-size:12px;fill:#41505D}
.note{font-size:10.5px;fill:#6B7A88}
.tag{font-size:10px;fill:#8492A0;letter-spacing:.4px}
.pl{font-size:13px;font-weight:700;fill:#19222C}
</style><rect width="720" height="440" fill="#FFFFFF"/><text x="56.0" y="40.0" class="title" text-anchor="start">Preference adherence — PrefEval (ICLR 2025)</text><text x="56.0" y="58.0" class="sub" text-anchor="start">Generation adheres to the stored preference · 3 seeds · n = 300 · whiskers ±1 SD</text><line x1="56.0" y1="376.0" x2="570.0" y2="376.0" stroke="#ECEFF3" stroke-width="1"/><text x="46.0" y="379.5" class="axis" text-anchor="end">0</text><line x1="56.0" y1="319.2" x2="570.0" y2="319.2" stroke="#ECEFF3" stroke-width="1"/><text x="46.0" y="322.7" class="axis" text-anchor="end">20</text><line x1="56.0" y1="262.4" x2="570.0" y2="262.4" stroke="#ECEFF3" stroke-width="1"/><text x="46.0" y="265.9" class="axis" text-anchor="end">40</text><line x1="56.0" y1="205.6" x2="570.0" y2="205.6" stroke="#ECEFF3" stroke-width="1"/><text x="46.0" y="209.1" class="axis" text-anchor="end">60</text><line x1="56.0" y1="148.8" x2="570.0" y2="148.8" stroke="#ECEFF3" stroke-width="1"/><text x="46.0" y="152.3" class="axis" text-anchor="end">80</text><line x1="56.0" y1="92.0" x2="570.0" y2="92.0" stroke="#ECEFF3" stroke-width="1"/><text x="46.0" y="95.5" class="axis" text-anchor="end">100</text><text x="46.0" y="80.0" class="axis" text-anchor="end">%</text><rect x="95.7" y="339.1" width="92.0" height="36.9" rx="5" fill="#A9B4BF"/><line x1="141.7" y1="335.1" x2="141.7" y2="343.1" stroke="#93A1B0" stroke-width="1.4"/><line x1="136.7" y1="335.1" x2="146.7" y2="335.1" stroke="#93A1B0" stroke-width="1.4"/><line x1="136.7" y1="343.1" x2="146.7" y2="343.1" stroke="#93A1B0" stroke-width="1.4"/><text x="141.7" y="327.1" class="val" text-anchor="middle">13%</text><text x="141.7" y="398.0" class="cat" text-anchor="middle">No memory</text><rect x="267.0" y="143.1" width="92.0" height="232.9" rx="5" fill="#0FA295"/><line x1="313.0" y1="132.5" x2="313.0" y2="153.7" stroke="#93A1B0" stroke-width="1.4"/><line x1="308.0" y1="132.5" x2="318.0" y2="132.5" stroke="#93A1B0" stroke-width="1.4"/><line x1="308.0" y1="153.7" x2="318.0" y2="153.7" stroke="#93A1B0" stroke-width="1.4"/><text x="313.0" y="131.1" class="val" text-anchor="middle">82%</text><text x="313.0" y="398.0" class="cat" text-anchor="middle">Echo M5</text><text x="313.0" y="414.0" class="note" text-anchor="middle">retrieval</text><rect x="438.3" y="120.4" width="92.0" height="255.6" rx="5" fill="#0A6E66"/><line x1="484.3" y1="114.3" x2="484.3" y2="126.5" stroke="#93A1B0" stroke-width="1.4"/><line x1="479.3" y1="114.3" x2="489.3" y2="114.3" stroke="#93A1B0" stroke-width="1.4"/><line x1="479.3" y1="126.5" x2="489.3" y2="126.5" stroke="#93A1B0" stroke-width="1.4"/><text x="484.3" y="108.4" class="val" text-anchor="middle">90%</text><text x="484.3" y="398.0" class="cat" text-anchor="middle">Oracle</text><text x="484.3" y="414.0" class="note" text-anchor="middle">pref. given</text><line x1="313.0" y1="90.4" x2="484.3" y2="90.4" stroke="#93A1B0" stroke-width="1.2"/><line x1="313.0" y1="90.4" x2="313.0" y2="135.1" stroke="#93A1B0" stroke-width="1.2"/><line x1="484.3" y1="90.4" x2="484.3" y2="112.4" stroke="#93A1B0" stroke-width="1.2"/><text x="398.7" y="82.4" class="note" text-anchor="middle">−8 pts</text><text x="588.0" y="132.0" class="lgd" text-anchor="start">Cold model</text><text x="588.0" y="150.0" class="lgd" text-anchor="start">collapses to</text><text x="588.0" y="170.0" class="pl" text-anchor="start" fill="#8492A0">13%</text><text x="588.0" y="204.0" class="lgd" text-anchor="start">Echo retrieves</text><text x="588.0" y="222.0" class="lgd" text-anchor="start">1-of-200 →</text><text x="588.0" y="242.0" class="pl" text-anchor="start" fill="#0A6E66">82%</text></svg>