<svg xmlns="http://www.w3.org/2000/svg" viewBox="0 0 760 460" width="760" height="460" font-size="12"><style>
text{font-family:-apple-system,'SF Pro Display','SF Pro Text','Inter','Helvetica Neue',Arial,sans-serif;fill:#19222C;font-variant-numeric:tabular-nums}
.title{font-size:17px;font-weight:600;letter-spacing:.1px}
.sub{font-size:11.5px;fill:#8492A0;letter-spacing:.2px}
.val{font-size:13.5px;font-weight:600}
.valsm{font-size:11.5px;font-weight:600}
.axis{font-size:10.5px;fill:#9AA6B2}
.cat{font-size:12.5px;fill:#3F4D5A;font-weight:500}
.lgd{font-size:12px;fill:#41505D}
.note{font-size:10.5px;fill:#6B7A88}
.tag{font-size:10px;fill:#8492A0;letter-spacing:.4px}
.pl{font-size:13px;font-weight:700;fill:#19222C}
</style><rect width="760" height="460" fill="#FFFFFF"/><text x="52.0" y="40.0" class="title" text-anchor="start">Proactive satisfaction across the conversation</text><text x="52.0" y="58.0" class="sub" text-anchor="start">Independent GLM-5.2 score (1–5) of each turn's first output · 15 personas × 3 seeds · band = 95% CI</text><line x1="52.0" y1="404.0" x2="564.0" y2="404.0" stroke="#ECEFF3" stroke-width="1"/><text x="42.0" y="407.5" class="axis" text-anchor="end">1</text><line x1="52.0" y1="327.0" x2="564.0" y2="327.0" stroke="#ECEFF3" stroke-width="1"/><text x="42.0" y="330.5" class="axis" text-anchor="end">2</text><line x1="52.0" y1="250.0" x2="564.0" y2="250.0" stroke="#ECEFF3" stroke-width="1"/><text x="42.0" y="253.5" class="axis" text-anchor="end">3</text><line x1="52.0" y1="173.0" x2="564.0" y2="173.0" stroke="#ECEFF3" stroke-width="1"/><text x="42.0" y="176.5" class="axis" text-anchor="end">4</text><line x1="52.0" y1="96.0" x2="564.0" y2="96.0" stroke="#ECEFF3" stroke-width="1"/><text x="42.0" y="99.5" class="axis" text-anchor="end">5</text><text x="52.0" y="424.0" class="axis" text-anchor="middle">0</text><text x="108.9" y="424.0" class="axis" text-anchor="middle">1</text><text x="165.8" y="424.0" class="axis" text-anchor="middle">2</text><text x="222.7" y="424.0" class="axis" text-anchor="middle">3</text><text x="279.6" y="424.0" class="axis" text-anchor="middle">4</text><text x="336.4" y="424.0" class="axis" text-anchor="middle">5</text><text x="393.3" y="424.0" class="axis" text-anchor="middle">6</text><text x="450.2" y="424.0" class="axis" text-anchor="middle">7</text><text x="507.1" y="424.0" class="axis" text-anchor="middle">8</text><text x="564.0" y="424.0" class="axis" text-anchor="middle">9</text><text x="308.0" y="448.0" class="note" text-anchor="middle">interaction (turn)</text><polygon points="52.0,166.7 108.9,119.2 165.8,120.5 222.7,103.1 279.6,98.6 336.4,103.4 393.3,92.6 450.2,113.8 507.1,92.2 564.0,98.7 564.0,137.8 507.1,120.3 450.2,174.0 393.3,116.5 336.4,153.7 279.6,141.3 222.7,150.5 165.8,187.8 108.9,178.9 52.0,251.2" fill="#0FA295" fill-opacity="0.12"/><polyline points="52.0,347.5 108.9,362.9 165.8,368.1 222.7,385.2 279.6,374.9 336.4,398.9 393.3,352.7 450.2,376.6 507.1,376.6 564.0,351.0" fill="none" stroke="#A9B4BF" stroke-width="1.8" stroke-linecap="round" stroke-linejoin="round" stroke-dasharray="1,5"/><circle cx="52.0" cy="347.5" r="2.8" fill="#A9B4BF"/><circle cx="108.9" cy="362.9" r="2.8" fill="#A9B4BF"/><circle cx="165.8" cy="368.1" r="2.8" fill="#A9B4BF"/><circle cx="222.7" cy="385.2" r="2.8" fill="#A9B4BF"/><circle cx="279.6" cy="374.9" r="2.8" fill="#A9B4BF"/><circle cx="336.4" cy="398.9" r="2.8" fill="#A9B4BF"/><circle cx="393.3" cy="352.7" r="2.8" fill="#A9B4BF"/><circle cx="450.2" cy="376.6" r="2.8" fill="#A9B4BF"/><circle cx="507.1" cy="376.6" r="2.8" fill="#A9B4BF"/><circle cx="564.0" cy="351.0" r="2.8" fill="#A9B4BF"/><text x="574.0" y="355.0" class="val" text-anchor="start" fill="#A9B4BF">1.7</text><polyline points="52.0,397.2 108.9,361.2 165.8,390.3 222.7,380.0 279.6,383.5 336.4,371.5 393.3,402.3 450.2,378.3 507.1,383.5 564.0,371.5" fill="none" stroke="#E1A458" stroke-width="1.8" stroke-linecap="round" stroke-linejoin="round" stroke-dasharray="1,5"/><circle cx="52.0" cy="397.2" r="2.8" fill="#E1A458"/><circle cx="108.9" cy="361.2" r="2.8" fill="#E1A458"/><circle cx="165.8" cy="390.3" r="2.8" fill="#E1A458"/><circle cx="222.7" cy="380.0" r="2.8" fill="#E1A458"/><circle cx="279.6" cy="383.5" r="2.8" fill="#E1A458"/><circle cx="336.4" cy="371.5" r="2.8" fill="#E1A458"/><circle cx="393.3" cy="402.3" r="2.8" fill="#E1A458"/><circle cx="450.2" cy="378.3" r="2.8" fill="#E1A458"/><circle cx="507.1" cy="383.5" r="2.8" fill="#E1A458"/><circle cx="564.0" cy="371.5" r="2.8" fill="#E1A458"/><text x="574.0" y="375.5" class="val" text-anchor="start" fill="#E1A458">1.4</text><polyline points="52.0,208.9 108.9,149.0 165.8,154.2 222.7,126.8 279.6,120.0 336.4,128.5 393.3,104.6 450.2,143.9 507.1,106.3 564.0,118.2" fill="none" stroke="#0FA295" stroke-width="3" stroke-linecap="round" stroke-linejoin="round"/><circle cx="52.0" cy="208.9" r="3.6" fill="#0FA295"/><circle cx="108.9" cy="149.0" r="3.6" fill="#0FA295"/><circle cx="165.8" cy="154.2" r="3.6" fill="#0FA295"/><circle cx="222.7" cy="126.8" r="3.6" fill="#0FA295"/><circle cx="279.6" cy="120.0" r="3.6" fill="#0FA295"/><circle cx="336.4" cy="128.5" r="3.6" fill="#0FA295"/><circle cx="393.3" cy="104.6" r="3.6" fill="#0FA295"/><circle cx="450.2" cy="143.9" r="3.6" fill="#0FA295"/><circle cx="507.1" cy="106.3" r="3.6" fill="#0FA295"/><circle cx="564.0" cy="118.2" r="3.6" fill="#0FA295"/><text x="574.0" y="122.2" class="val" text-anchor="start" fill="#0FA295">4.7</text><line x1="580.0" y1="150.0" x2="602.0" y2="150.0" stroke="#A9B4BF" stroke-width="1.8"/><circle cx="591.0" cy="150.0" r="3.4" fill="#A9B4BF"/><text x="610.0" y="148.0" class="lgd" text-anchor="start">Baseline A</text><text x="610.0" y="162.0" class="note" text-anchor="start">no memory</text><line x1="580.0" y1="176.0" x2="602.0" y2="176.0" stroke="#E1A458" stroke-width="1.8"/><circle cx="591.0" cy="176.0" r="3.4" fill="#E1A458"/><text x="610.0" y="174.0" class="lgd" text-anchor="start">Baseline B</text><text x="610.0" y="188.0" class="note" text-anchor="start">self-eval + decay</text><line x1="580.0" y1="202.0" x2="602.0" y2="202.0" stroke="#0FA295" stroke-width="3"/><circle cx="591.0" cy="202.0" r="3.4" fill="#0FA295"/><text x="610.0" y="200.0" class="lgd" text-anchor="start">Echo</text><text x="610.0" y="214.0" class="note" text-anchor="start">full system</text><rect x="580" y="242" width="176" height="80" rx="10" fill="#F2F9F8" stroke="#0FA295" stroke-opacity="0.5"/><text x="594.0" y="262.0" class="lgd" text-anchor="start" font-weight="600">Echo vs baselines</text><text x="594.0" y="282.0" class="note" text-anchor="start" fill="#0A6E66" font-size="12">Cliff's δ = 0.84 / 0.86</text><text x="594.0" y="299.0" class="note" text-anchor="start" fill="#0A6E66" font-size="12">p &lt; 10⁻⁷²  (large)</text><text x="594.0" y="315.0" class="note" text-anchor="start">n = 450 paired</text></svg>